C:/Program Files/Krita (x64)/bin/ffmpeg.exe -hide_banner -y -y -r 1 -start_number 0 -start_number_range 1 -i C:/Users/Callum Hodgkins/Documents/Website/I dont no/img/frame%04d.png -i C:/Users/Callum Hodgkins/Documents/Website/I dont no/img/KritaTempPalettegen_%06d.png -lavfi [0:v][1:v]paletteuse=dither=sierra2_4a:diff_mode=none -f gif -loop 0 -gifflags +transdiff C:/Users/Callum Hodgkins/Documents/Website/I dont no/img/014.gif
=====================================================
Input #0, image2, from 'C:/Users/Callum Hodgkins/Documents/Website/I dont no/img/frame%04d.png':
  Duration: 00:00:00.04, start: 0.000000, bitrate: N/A
  Stream #0:0: Video: png, rgba(pc, gbr/unknown/unknown), 650x450 [SAR 11811:11811 DAR 13:9], 25 fps, 25 tbr, 25 tbn
Input #1, image2, from 'C:/Users/Callum Hodgkins/Documents/Website/I dont no/img/KritaTempPalettegen_%06d.png':
  Duration: 00:00:00.04, start: 0.000000, bitrate: N/A
  Stream #1:0: Video: png, rgba(pc, gbr/unknown/unknown), 16x16 [SAR 1:1 DAR 1:1], 25 fps, 25 tbr, 25 tbn
Stream mapping:
  Stream #0:0 (png) -> paletteuse
  Stream #1:0 (png) -> paletteuse
  paletteuse:default -> Stream #0:0 (gif)
Press [q] to stop, [?] for help
Output #0, gif, to 'C:/Users/Callum Hodgkins/Documents/Website/I dont no/img/014.gif':
  Metadata:
    encoder         : Lavf61.7.100
  Stream #0:0: Video: gif, pal8(pc, gbr/unknown/unknown, progressive), 650x450 [SAR 1:1 DAR 13:9], q=2-31, 200 kb/s, 1 fps, 100 tbn
      Metadata:
        encoder         : Lavc61.19.101 gif
[out#0/gif @ 00000130cdd355c0] video:32KiB audio:0KiB subtitle:0KiB other streams:0KiB global headers:0KiB muxing overhead: 0.060929%
frame=    1 fps=0.0 q=-0.0 Lsize=      32KiB time=00:00:01.00 bitrate= 262.8kbits/s speed=1.21x    
